<mxfile host="app.diagrams.net" agent="Mozilla/5.0 (Macintosh; Intel Mac OS X 10_15_7) AppleWebKit/605.1.15 (KHTML, like Gecko) Version/18.5 Safari/605.1.15" version="27.1.6">
  <diagram name="Page-1" id="d7x7HRGKNxEwvZ4480Pn">
    <mxGraphModel dx="2477" dy="1165" grid="1" gridSize="10" guides="1" tooltips="1" connect="1" arrows="1" fold="1" page="1" pageScale="1" pageWidth="850" pageHeight="1100" math="0" shadow="0">
      <root>
        <mxCell id="0" />
        <mxCell id="1" parent="0" />
        <mxCell id="-Nm8RIqbLEtLNSrTUfkg-13" value="" style="edgeStyle=orthogonalEdgeStyle;rounded=0;orthogonalLoop=1;jettySize=auto;html=1;" edge="1" parent="1" source="-Nm8RIqbLEtLNSrTUfkg-1" target="-Nm8RIqbLEtLNSrTUfkg-3">
          <mxGeometry relative="1" as="geometry" />
        </mxCell>
        <mxCell id="-Nm8RIqbLEtLNSrTUfkg-1" value="Calculate PD, LGD, EAD" style="rounded=1;whiteSpace=wrap;html=1;" vertex="1" parent="1">
          <mxGeometry x="460" y="330" width="120" height="60" as="geometry" />
        </mxCell>
        <mxCell id="-Nm8RIqbLEtLNSrTUfkg-15" value="" style="edgeStyle=orthogonalEdgeStyle;rounded=0;orthogonalLoop=1;jettySize=auto;html=1;" edge="1" parent="1" source="-Nm8RIqbLEtLNSrTUfkg-2" target="-Nm8RIqbLEtLNSrTUfkg-9">
          <mxGeometry relative="1" as="geometry" />
        </mxCell>
        <mxCell id="-Nm8RIqbLEtLNSrTUfkg-2" value="Generate Report" style="rounded=1;whiteSpace=wrap;html=1;" vertex="1" parent="1">
          <mxGeometry x="820" y="330" width="120" height="60" as="geometry" />
        </mxCell>
        <mxCell id="-Nm8RIqbLEtLNSrTUfkg-14" value="" style="edgeStyle=orthogonalEdgeStyle;rounded=0;orthogonalLoop=1;jettySize=auto;html=1;" edge="1" parent="1" source="-Nm8RIqbLEtLNSrTUfkg-3" target="-Nm8RIqbLEtLNSrTUfkg-2">
          <mxGeometry relative="1" as="geometry" />
        </mxCell>
        <mxCell id="-Nm8RIqbLEtLNSrTUfkg-3" value="Compute ECL" style="rounded=1;whiteSpace=wrap;html=1;" vertex="1" parent="1">
          <mxGeometry x="640" y="330" width="120" height="60" as="geometry" />
        </mxCell>
        <mxCell id="-Nm8RIqbLEtLNSrTUfkg-12" value="" style="edgeStyle=orthogonalEdgeStyle;rounded=0;orthogonalLoop=1;jettySize=auto;html=1;" edge="1" parent="1" source="-Nm8RIqbLEtLNSrTUfkg-5" target="-Nm8RIqbLEtLNSrTUfkg-1">
          <mxGeometry relative="1" as="geometry" />
        </mxCell>
        <mxCell id="-Nm8RIqbLEtLNSrTUfkg-5" value="Clear Data(Pandas)" style="rounded=1;whiteSpace=wrap;html=1;" vertex="1" parent="1">
          <mxGeometry x="280" y="330" width="120" height="60" as="geometry" />
        </mxCell>
        <mxCell id="-Nm8RIqbLEtLNSrTUfkg-11" value="" style="edgeStyle=orthogonalEdgeStyle;rounded=0;orthogonalLoop=1;jettySize=auto;html=1;" edge="1" parent="1" source="-Nm8RIqbLEtLNSrTUfkg-6" target="-Nm8RIqbLEtLNSrTUfkg-5">
          <mxGeometry relative="1" as="geometry" />
        </mxCell>
        <mxCell id="-Nm8RIqbLEtLNSrTUfkg-6" value="Extract Data(SQL)" style="rounded=1;whiteSpace=wrap;html=1;" vertex="1" parent="1">
          <mxGeometry x="100" y="330" width="120" height="60" as="geometry" />
        </mxCell>
        <mxCell id="-Nm8RIqbLEtLNSrTUfkg-10" value="" style="edgeStyle=orthogonalEdgeStyle;rounded=0;orthogonalLoop=1;jettySize=auto;html=1;" edge="1" parent="1" source="-Nm8RIqbLEtLNSrTUfkg-8" target="-Nm8RIqbLEtLNSrTUfkg-6">
          <mxGeometry relative="1" as="geometry" />
        </mxCell>
        <mxCell id="-Nm8RIqbLEtLNSrTUfkg-8" value="START" style="ellipse;whiteSpace=wrap;html=1;" vertex="1" parent="1">
          <mxGeometry x="-90" y="320" width="120" height="80" as="geometry" />
        </mxCell>
        <mxCell id="-Nm8RIqbLEtLNSrTUfkg-9" value="END" style="ellipse;whiteSpace=wrap;html=1;" vertex="1" parent="1">
          <mxGeometry x="990" y="320" width="120" height="80" as="geometry" />
        </mxCell>
      </root>
    </mxGraphModel>
  </diagram>
</mxfile>
